<svg xmlns="http://www.w3.org/2000/svg" width="800" height="800" viewBox="0 0 800 800">
  <defs>
    <style>
      .cls-1 {
        fill-rule: evenodd;
      }

      .cls-2 {
        fill: none;
        stroke: #000;
        stroke-width: 10px;
      }
    </style>
  </defs>
  <path id="S" class="cls-1" d="M135.015,700.508q14.988-28.151,36.618-26.02,9.528,0.939,23.287,7.852,40.239,19.9,58.905,25.81a199.23,199.23,0,0,0,40.662,8.084q44.353,4.374,83.667-11.38t62.775-49.182q23.463-33.426,27.188-71.212a129.946,129.946,0,0,0-9.934-64.5q-13.229-31.115-62.845-89.165T332.8,347.955q-12.923-24.792-10.391-50.472,2.891-29.343,28.924-49.373t64.16-16.267q48.021,4.736,74.571,35.874t22.174,75.524q-1.337,13.577-4.971,35.438l12.465,1.229L574.113,218.6l-13.931-1.373q-12.037,16.965-20.276,21.7a30.841,30.841,0,0,1-18.872,3.7,54.52,54.52,0,0,1-11.256-2.221q-2.129-.948-22.56-11.485-28.836-15.43-39.98-18.758a181.4,181.4,0,0,0-38.463-7.867q-60.859-6-103.365,27.216t-47.64,85.307q-3.216,32.654,10.722,64.024,8.488,18.988,41.175,59.248,67.236,84.048,81.468,116.188a92.892,92.892,0,0,1,6.884,46.608q-3.793,38.517-31.631,65.588t-75.862,22.335q-51.692-5.1-80.662-39.808t-24.021-84.966q1.736-17.607,6.938-44.133l-12.464-1.229L121.084,699.134Z"/>
  <path id="W" class="cls-1" d="M598.634,131.823v13.639q22.466,0,36.47,5.16a28.382,28.382,0,0,1,13.446,10.321,26.539,26.539,0,0,1,5.341,15.85q0,17.692-16.208,63.4L542.641,515.541,446.862,243.879q-16.577-46.807-16.577-65.612,0-15.11,9.578-23.959t30.207-8.846h13.262V131.823h-194.5v13.639q15.1,0,22.1,2.211a66.407,66.407,0,0,1,18.419,9.584,45.026,45.026,0,0,1,11.789,11.795,182.8,182.8,0,0,1,17.313,32.438l11.788,33.543,14.736,42.021L302.089,515.541,203.732,235.033q-16.213-46.444-16.208-59.346,0-12.526,10.314-21.379t29.839-8.846h8.841V131.823H51.592v13.639q21.732,0,34.443,6.819t20.077,20.826q4.421,8.484,21,54.922L275.566,643.078h13.262L401.92,323.5l113.829,319.58h14.735L669.732,240.193q15.834-48.656,23.207-61.557,11.052-19.161,23.208-26.171t31.681-7V131.823H598.634Z"/>
  <circle class="cls-2" cx="400" cy="400" r="394.531"/>
  <circle id="Ellipse_1_copy" data-name="Ellipse 1 copy" class="cls-2" cx="400" cy="400" r="355.5"/>
</svg>
